<?xml version="1.0" encoding="UTF-8" standalone="no"?><!-- Generator: Gravit.io --><svg xmlns="http://www.w3.org/2000/svg" xmlns:xlink="http://www.w3.org/1999/xlink" style="isolation:isolate" viewBox="0 0 200 60" width="200pt" height="60pt"><defs><clipPath id="_clipPath_1DBGAp7FNtybwGI7IOqGxXVtwkUCN9Og"><rect width="200" height="60"/></clipPath></defs><g clip-path="url(#_clipPath_1DBGAp7FNtybwGI7IOqGxXVtwkUCN9Og)"><g style="isolation:isolate"/><g style="isolation:isolate"><g><path d=" M 28.422 21.609 L 27.75 25.391 L 19.031 25.391 L 17.406 34.688 L 12.828 34.688 L 16.781 11.938 L 31.188 11.938 L 30.516 15.734 L 20.703 15.734 L 19.672 21.609 L 28.422 21.609 L 28.422 21.609 Z  M 39.5 34.688 L 39.828 32.938 L 39.828 32.938 Q 37.953 35.047 35.172 35 L 35.172 35 L 35.172 35 Q 32.734 34.969 31.484 33.25 L 31.484 33.25 L 31.484 33.25 Q 30.234 31.531 30.516 28.719 L 30.516 28.719 L 32.344 17.781 L 36.75 17.781 L 34.891 28.766 L 34.891 28.766 Q 34.828 29.281 34.875 29.734 L 34.875 29.734 L 34.875 29.734 Q 35.031 31.297 36.609 31.344 L 36.609 31.344 L 36.609 31.344 Q 38.656 31.406 40 29.766 L 40 29.766 L 42.109 17.781 L 46.547 17.781 L 43.609 34.688 L 39.5 34.688 L 39.5 34.688 Z  M 51.406 13.625 L 55.828 13.625 L 55.094 17.781 L 57.906 17.781 L 57.328 21.094 L 54.516 21.094 L 53.078 29.563 L 53.078 29.563 Q 52.984 30.359 53.203 30.781 L 53.203 30.781 L 53.203 30.781 Q 53.422 31.203 54.266 31.234 L 54.266 31.234 L 54.266 31.234 Q 54.516 31.25 55.609 31.156 L 55.609 31.156 L 55.297 34.609 L 55.297 34.609 Q 54.125 35 52.766 34.969 L 52.766 34.969 L 52.766 34.969 Q 50.594 34.938 49.531 33.609 L 49.531 33.609 L 49.531 33.609 Q 48.469 32.281 48.656 30.016 L 48.656 30.016 L 50.109 21.094 L 47.719 21.094 L 48.297 17.781 L 50.688 17.781 L 51.406 13.625 L 51.406 13.625 Z  M 67.672 34.688 L 68 32.938 L 68 32.938 Q 66.125 35.047 63.344 35 L 63.344 35 L 63.344 35 Q 60.906 34.969 59.656 33.25 L 59.656 33.25 L 59.656 33.25 Q 58.406 31.531 58.688 28.719 L 58.688 28.719 L 60.516 17.781 L 64.922 17.781 L 63.063 28.766 L 63.063 28.766 Q 63 29.281 63.047 29.734 L 63.047 29.734 L 63.047 29.734 Q 63.203 31.297 64.781 31.344 L 64.781 31.344 L 64.781 31.344 Q 66.828 31.406 68.172 29.766 L 68.172 29.766 L 70.281 17.781 L 74.719 17.781 L 71.781 34.688 L 67.672 34.688 L 67.672 34.688 Z  M 87.203 17.656 L 86.641 22.016 L 86.641 22.016 Q 85.734 21.859 85.156 21.859 L 85.156 21.859 L 85.156 21.859 Q 82.797 21.797 81.422 23.625 L 81.422 23.625 L 79.469 34.688 L 75.063 34.688 L 78 17.781 L 82.141 17.766 L 81.734 19.828 L 81.734 19.828 Q 83.328 17.438 85.672 17.438 L 85.672 17.438 L 85.672 17.438 Q 86.328 17.438 87.203 17.656 L 87.203 17.656 L 87.203 17.656 Z " fill="rgb(255,255,255)"/><path d=" M 114.418 28.328 L 115.668 39.656 L 120.48 28.328 L 125.23 28.328 L 117.059 45.234 L 112.84 45.234 L 109.949 28.328 L 114.418 28.328 L 114.418 28.328 Z  M 132.23 45.547 L 132.23 45.547 L 132.23 45.547 Q 130.012 45.531 128.301 44.461 L 128.301 44.461 L 128.301 44.461 Q 126.59 43.391 125.746 41.523 L 125.746 41.523 L 125.746 41.523 Q 124.902 39.656 125.09 37.406 L 125.09 37.406 L 125.137 36.781 L 125.137 36.781 Q 125.371 34.313 126.574 32.25 L 126.574 32.25 L 126.574 32.25 Q 127.777 30.188 129.668 29.07 L 129.668 29.07 L 129.668 29.07 Q 131.559 27.953 133.855 28.016 L 133.855 28.016 L 133.855 28.016 Q 137.121 28.078 138.801 30.414 L 138.801 30.414 L 138.801 30.414 Q 140.48 32.75 140.074 36.328 L 140.074 36.328 L 139.824 38.25 L 129.465 38.25 L 129.465 38.25 Q 129.402 39.891 130.262 40.875 L 130.262 40.875 L 130.262 40.875 Q 131.121 41.859 132.605 41.891 L 132.605 41.891 L 132.605 41.891 Q 135.012 41.953 136.824 40.031 L 136.824 40.031 L 138.84 42.531 L 138.84 42.531 Q 137.887 43.969 136.09 44.773 L 136.09 44.773 L 136.09 44.773 Q 134.293 45.578 132.23 45.547 Z  M 133.637 31.656 L 133.637 31.656 L 133.637 31.656 Q 132.418 31.625 131.473 32.422 L 131.473 32.422 L 131.473 32.422 Q 130.527 33.219 129.777 35.188 L 129.777 35.188 L 135.84 35.188 L 135.934 34.781 L 135.934 34.781 Q 136.027 34.156 135.949 33.594 L 135.949 33.594 L 135.949 33.594 Q 135.793 32.688 135.184 32.18 L 135.184 32.18 L 135.184 32.18 Q 134.574 31.672 133.637 31.656 Z  M 143.98 28.328 L 148.105 28.313 L 147.73 30.313 L 147.73 30.313 Q 149.762 27.953 152.652 28.016 L 152.652 28.016 L 152.652 28.016 Q 155.043 28.063 156.184 29.766 L 156.184 29.766 L 156.184 29.766 Q 157.324 31.469 157.012 34.484 L 157.012 34.484 L 155.23 45.234 L 150.824 45.234 L 152.637 34.438 L 152.637 34.438 Q 152.715 33.828 152.668 33.328 L 152.668 33.328 L 152.668 33.328 Q 152.465 31.734 150.668 31.688 L 150.668 31.688 L 150.668 31.688 Q 148.934 31.625 147.559 33.297 L 147.559 33.297 L 145.449 45.234 L 141.043 45.234 L 143.98 28.328 L 143.98 28.328 Z  M 163.199 24.172 L 167.621 24.172 L 166.887 28.328 L 169.699 28.328 L 169.121 31.641 L 166.309 31.641 L 164.871 40.109 L 164.871 40.109 Q 164.777 40.906 164.996 41.328 L 164.996 41.328 L 164.996 41.328 Q 165.215 41.75 166.059 41.781 L 166.059 41.781 L 166.059 41.781 Q 166.309 41.797 167.402 41.703 L 167.402 41.703 L 167.09 45.156 L 167.09 45.156 Q 165.918 45.547 164.559 45.516 L 164.559 45.516 L 164.559 45.516 Q 162.387 45.484 161.324 44.156 L 161.324 44.156 L 161.324 44.156 Q 160.262 42.828 160.449 40.563 L 160.449 40.563 L 161.902 31.641 L 159.512 31.641 L 160.09 28.328 L 162.48 28.328 L 163.199 24.172 L 163.199 24.172 Z  M 179.121 40.469 L 179.121 40.469 L 179.121 40.469 Q 179.371 39.219 177.387 38.656 L 177.387 38.656 L 175.965 38.297 L 175.965 38.297 Q 170.918 36.906 171.059 33.391 L 171.059 33.391 L 171.059 33.391 Q 171.137 31 173.176 29.492 L 173.176 29.492 L 173.176 29.492 Q 175.215 27.984 178.09 28.016 L 178.09 28.016 L 178.09 28.016 Q 180.949 28.047 182.715 29.531 L 182.715 29.531 L 182.715 29.531 Q 184.48 31.016 184.512 33.484 L 184.512 33.484 L 180.137 33.469 L 180.137 33.469 Q 180.168 31.297 177.98 31.266 L 177.98 31.266 L 177.98 31.266 Q 176.949 31.266 176.191 31.781 L 176.191 31.781 L 176.191 31.781 Q 175.434 32.297 175.262 33.172 L 175.262 33.172 L 175.262 33.172 Q 175.027 34.422 177.152 34.938 L 177.152 34.938 L 177.777 35.078 L 177.777 35.078 Q 179.934 35.594 181.074 36.258 L 181.074 36.258 L 181.074 36.258 Q 182.215 36.922 182.832 37.906 L 182.832 37.906 L 182.832 37.906 Q 183.449 38.891 183.402 40.266 L 183.402 40.266 L 183.402 40.266 Q 183.355 41.875 182.363 43.078 L 182.363 43.078 L 182.363 43.078 Q 181.371 44.281 179.645 44.938 L 179.645 44.938 L 179.645 44.938 Q 177.918 45.594 176.012 45.547 L 176.012 45.547 L 176.012 45.547 Q 173.199 45.516 171.324 43.93 L 171.324 43.93 L 171.324 43.93 Q 169.449 42.344 169.418 39.828 L 169.418 39.828 L 173.574 39.859 L 173.574 39.859 Q 173.637 42.281 176.168 42.313 L 176.168 42.313 L 176.168 42.313 Q 177.387 42.313 178.176 41.813 L 178.176 41.813 L 178.176 41.813 Q 178.965 41.313 179.121 40.469 Z  M 106.5 28.32 L 105.68 32.91 L 94.781 32.91 L 93.453 40.527 L 106.266 40.527 L 105.445 45.234 L 86.91 45.234 L 91.852 16.797 L 110.348 16.797 L 109.508 21.543 L 96.754 21.543 L 95.563 28.32 L 106.5 28.32 L 106.5 28.32 Z " fill="rgb(255,255,255)"/><rect x="12.5" y="40" width="68" height="5" transform="matrix(1,0,0,1,0,0)" fill="rgb(64,207,52)"/></g></g></g></svg>